<?xml version="1.0" encoding="utf-8"?>
<!-- Generator: Adobe Illustrator 23.0.2, SVG Export Plug-In . SVG Version: 6.00 Build 0)  -->
<svg version="1.1" id="Layer_1" xmlns="http://www.w3.org/2000/svg" xmlns:xlink="http://www.w3.org/1999/xlink" x="0px" y="0px"
	 viewBox="0 0 233 65" style="enable-background:new 0 0 233 65;" xml:space="preserve">
<style type="text/css">
	.st0{fill:#FFFFFF;}
</style>
<g id="BIRGER">
	<path class="st0" d="M221.3,48.7h10.4c0.9,0,1.3,0.4,1.3,1.3v8.2c0,0.9-0.4,1.3-1.3,1.3h-10.4c-0.9,0-1.3-0.4-1.3-1.3V50
		C220,49.1,220.5,48.7,221.3,48.7"/>
	<path class="st0" d="M13,38.8v9.1c0,0.6,0.3,0.9,0.9,0.9H20c2.3,0,3.4-1,3.4-2.9v-5c0-1.9-1-2.9-2.9-2.9h-6.7
		C13.3,37.9,13,38.2,13,38.8 M13,17.1v9.1c0,0.6,0.3,0.9,0.9,0.9h5.8c1.7,0,2.5-0.8,2.5-2.5v-5.8c0-1.7-0.8-2.5-2.5-2.5h-5.8
		C13.3,16.3,13,16.6,13,17.1 M23,5.5c3.4,0,6.2,1.2,8.6,3.6c2.4,2.4,3.6,5.3,3.6,8.6v4.1c0,3.4-1.2,6.2-3.6,8.6
		c-0.2,0.2-0.5,0.5-0.7,0.6v0c0.7,0.5,1.4,1,2,1.6c2.4,2.4,3.6,5.3,3.6,8.7v6c0,3.4-1.2,6.2-3.6,8.6c-2.4,2.4-5.3,3.6-8.6,3.6H1.3
		c-0.9,0-1.3-0.4-1.3-1.3V6.8c0-0.9,0.4-1.3,1.3-1.3H23z"/>
	<path class="st0" d="M54.8,58.2c0,0.9-0.4,1.3-1.3,1.3H43.1c-0.9,0-1.3-0.4-1.3-1.3V6.8c0-0.9,0.4-1.3,1.3-1.3h10.4
		c0.8,0,1.3,0.4,1.3,1.3V58.2z"/>
	<path class="st0" d="M73.2,17.1v9.1c0,0.6,0.3,0.9,0.9,0.9h5.4c1.7,0,2.5-0.8,2.5-2.5v-5.8c0-1.7-0.8-2.5-2.5-2.5h-5.4
		C73.5,16.3,73.2,16.6,73.2,17.1 M92.2,32.5c2,2.3,3,4.9,3,8v17.7c0,0.9-0.4,1.3-1.3,1.3H83.3c-0.9,0-1.3-0.4-1.3-1.3V40.8
		c0-1.9-1-2.9-2.9-2.9h-5.2c-0.5,0-0.7,0.3-0.7,0.9v19.5c0,0.9-0.4,1.3-1.3,1.3H61.5c-0.9,0-1.3-0.4-1.3-1.3V6.8
		c0-0.9,0.4-1.3,1.3-1.3h21.3c3.4,0,6.2,1.2,8.6,3.6c2.4,2.4,3.6,5.3,3.6,8.6v6.9C95,27.6,94.1,30.2,92.2,32.5L92.2,32.5z"/>
	<path class="st0" d="M112.8,59.5c-3.4,0-6.2-1.2-8.6-3.6c-2.4-2.4-3.6-5.3-3.6-8.6V17.6c0-3.4,1.2-6.2,3.6-8.6
		c2.4-2.4,5.3-3.6,8.6-3.6H133c0.9,0,1.3,0.4,1.3,1.3V15c0,0.9-0.4,1.3-1.3,1.3h-18.6c-0.6,0-0.9,0.3-0.9,0.9v30.7
		c0,0.6,0.3,0.9,0.9,0.9h7.6c0.7,0,1.1-0.3,1.1-0.9V30.6c0-0.9,0.4-1.3,1.3-1.3h10.4c0.9,0,1.3,0.4,1.3,1.3v27.7
		c0,0.9-0.4,1.3-1.3,1.3H112.8z"/>
	<path class="st0" d="M141.5,47.4V6.8c0-0.9,0.4-1.3,1.3-1.3h29.9c0.9,0,1.3,0.4,1.3,1.3V15c0,0.9-0.4,1.3-1.3,1.3h-17.3
		c-0.6,0-0.9,0.3-0.9,0.9v9.1c0,0.6,0.3,0.9,0.9,0.9h14.4c0.9,0,1.3,0.4,1.3,1.3v8.2c0,0.9-0.4,1.3-1.3,1.3h-14.4
		c-0.6,0-0.9,0.3-0.9,0.9V44c0,3.1,1.6,4.7,4.7,4.7h14.4c0.9,0,1.3,0.4,1.3,1.3v8.2c0,0.9-0.4,1.3-1.3,1.3h-19.9
		c-3.4,0-6.2-1.2-8.6-3.6C142.7,53.6,141.5,50.7,141.5,47.4"/>
	<path class="st0" d="M193.2,17.1v9.1c0,0.6,0.3,0.9,0.9,0.9h5.4c1.7,0,2.5-0.8,2.5-2.5v-5.8c0-1.7-0.8-2.5-2.5-2.5h-5.4
		C193.5,16.3,193.2,16.6,193.2,17.1 M212.2,32.5c2,2.3,3,4.9,3,8v17.7c0,0.9-0.4,1.3-1.3,1.3h-10.6c-0.9,0-1.3-0.4-1.3-1.3V40.8
		c0-1.9-1-2.9-2.9-2.9H194c-0.5,0-0.7,0.3-0.7,0.9v19.5c0,0.9-0.4,1.3-1.3,1.3h-10.4c-0.9,0-1.3-0.4-1.3-1.3V6.8
		c0-0.9,0.4-1.3,1.3-1.3h21.3c3.4,0,6.2,1.2,8.6,3.6c2.4,2.4,3.6,5.3,3.6,8.6v6.9C215.1,27.6,214.1,30.2,212.2,32.5L212.2,32.5z"/>
</g>
</svg>
